# AST/ASF file generated using VICON BodyLanguage
# -----------------------------------------------
:version 1.10
:name VICON
:units
  mass 1.0
  length 0.45
  angle deg
:documentation
   .ast/.asf automatically generated from VICON data using
   VICON BodyBuilder and BodyLanguage model FoxedUp or BRILLIANT.MOD
:root
   order TX TY TZ RX RY RZ
   axis XYZ
   position 0 0 0  
   orientation 0 0 0 
:bonedata
  begin
     id 1 
     name lhipjoint
     direction 0.602128 -0.715006 0.355257 
     length 2.21237 
     axis 0 0 0  XYZ
  end
  begin
     id 2 
     name lfemur
     direction 0.34202 -0.939693 0  
     length 6.71649  
     axis 0 0 20  XYZ
    dof rx ry rz
    limits (-160.0 20.0)
           (-70.0 70.0)
           (-60.0 70.0)
  end
  begin
     id 3 
     name ltibia
     direction 0.34202 -0.939693 0   
     length 6.97123   
     axis 0 0 20   XYZ
    dof rx
    limits (-10.0 170.0)
  end
  begin
     id 4 
     name lfoot
     direction 0.0655697 -0.180151 0.981451   
     length 1.80924   
     axis -90 7.62852e-016 20   XYZ
    dof rx rz
    limits (-45.0 90.0)
           (-70.0 20.0)
  end
  begin
     id 5 
     name ltoes
     direction 1.53545e-011 -4.21827e-011 1   
     length 0.916331   
     axis -90 7.62852e-016 20   XYZ
    dof rx
    limits (-90.0 20.0)
  end
  begin
     id 6 
     name rhipjoint
     direction -0.625414 -0.698792 0.347201   
     length 2.2637  
     axis 0 0 0  XYZ 
  end
  begin
     id 7 
     name rfemur
     direction -0.34202 -0.939693 0   
     length 7.07595   
     axis 0 0 -20   XYZ
    dof rx ry rz
    limits (-160.0 20.0)
           (-70.0 70.0)
           (-70.0 60.0)
  end
  begin
     id 8 
     name rtibia
     direction -0.34202 -0.939693 0   
     length 7.22924   
     axis 0 0 -20   XYZ
    dof rx
    limits (-10.0 170.0)
 end
 begin
     id 9 
     name rfoot
     direction -0.0766747 -0.210662 0.974547   
     length 1.98482  
     axis -90 -7.62852e-016 -20   XYZ
    dof rx rz
    limits (-45.0 90.0)
           (-20.0 70.0)
  end
  begin
     id 10 
     name rtoes
     direction -1.53532e-011 -4.21867e-011 1   
     length 0.999842   
     axis -90 -7.62852e-016 -20   XYZ
    dof rx
    limits (-90.0 20.0)
  end
  begin
     id 11 
     name lowerback
     direction -0.0224668 0.997354 -0.0691422   
     length 2.09945   
     axis 0 0 0   XYZ
    dof rx ry rz
    limits (-20.0 45.0)
           (-30.0 30.0)
           (-30.0 30.0)
  end
  begin
     id 12 
     name upperback
     direction 0.0134698 0.998451 -0.0539888   
     length 2.09758   
     axis 0 0 0   XYZ
    dof rx ry rz
    limits (-20.0 45.0)
           (-30.0 30.0)
           (-30.0 30.0)
  end
  begin
     id 13 
     name thorax
     direction 0.0241905 0.99948 -0.0213333   
     length 2.10428   
     axis 0 0 0   XYZ
    dof rx ry rz
    limits (-20.0 45.0)
           (-30.0 30.0)
           (-30.0 30.0)
  end
  begin
     id 14 
     name lowerneck
     direction -0.00866847 0.995978 0.0891737   
     length 1.3959   
     axis 0 0 0   XYZ
    dof rx ry rz
    limits (-20.0 45.0)
           (-30.0 30.0)
           (-30.0 30.0)
  end
  begin
     id 15 
     name upperneck
     direction 0.0680679 0.992203 0.104404   
     length 1.39452   
     axis 0 0 0   XYZ
    dof rx ry rz
    limits (-20.0 45.0)
           (-30.0 30.0)
           (-30.0 30.0)
  end
  begin
     id 16
     name head
     direction 0.0242216 0.999358 0.0264054  
     length 1.40433  
     axis 0 0 0   XYZ
    dof rx ry rz
    limits (-20.0 45.0)
           (-30.0 30.0)
           (-30.0 30.0)
  end
  begin
     id 17 
     name lclavicle
     direction 0.929368 0.362991 -0.0671771  
     length 3.04887  
     axis 0 0 0   XYZ
    dof ry rz
    limits (-20.0 10.0)
           (0.0 20.0)
  end
  begin
     id 18 
     name lhumerus
     direction 1 -4.48967e-011 -7.13741e-028   
     length 4.77195   
     axis -180 -30 -90   XYZ
    dof rx ry rz
    limits (-60.0 90.0)
           (-90.0 90.0)
           (-90.0 90.0)
  end
  begin
     id 19
     name lradius
     direction 1 -4.48977e-011 3.60404e-027   
     length 2.98444   
     axis -180 -30 -90   XYZ
    dof rx
    limits (-10.0 170.0)
  end
  begin
     id 20
     name lwrist
     direction 1 -4.48997e-011 7.54877e-027   
     length 1.49222   
     axis -7.18178e-015 90 90   XYZ
    dof ry
    limits (-180.0 0.0)
 end
  begin
     id 21 
     name lhand
     direction 1 -4.489e-011 1.51105e-026   
     length 0.992285   
     axis -9.63605e-015 90 90   XYZ
    dof rx rz
    limits (-90.0 90.0)
           (-45.0 45.0)
  end
  begin
     id 22 
     name lfingers
     direction 1 -4.48998e-011 3.01948e-026   
     length 0.800006   
     axis -1.92718e-014 90 90   XYZ
    dof rx
    limits (0.0 90.0)
  end
  begin
     id 23
     name lthumb
     direction 0.707107 -6.34881e-011 0.707107   
     length 1.14865   
     axis -90 45 -3.53137e-014   XYZ
    dof rx rz
    limits (-45.0 45.0)
           (-45.0 45.0)
  end
  begin
     id 24 
     name rclavicle
     direction -0.945672 0.324529 0.0196374   
     length 3.4236  
     axis 0 0 0   XYZ 
    dof ry rz
    limits (-10.0 20.0)
           (-20.0 0.0)
  end
  begin
     id 25 
     name rhumerus
     direction -1 -4.4896e-011 1.02757e-029  
     length 4.62052   
     axis -180 30 90   XYZ
    dof rx ry rz
    limits (-90.0 60.0)
           (-90.0 90.0)
           (-90.0 90.0)
  end
  begin
     id 26 
     name rradius
     direction -1 -4.48982e-011 3.85962e-027   
     length 2.95332   
     axis -180 30 90   XYZ
    dof rx
    limits (-10.0 170.0)
  end
  begin
     id 27 
     name rwrist
     direction -1 -4.48961e-011 7.55118e-027   
     length 1.47666   
     axis -7.18178e-015 -90 -90   XYZ
    dof ry
    limits (-180.0 0.0)
  end
  begin
     id 28
     name rhand
     direction -1 -4.48984e-011 1.50994e-026   
     length 0.990956   
     axis -9.63605e-015 -90 -90   XYZ
    dof rx rz
    limits (-90.0 90.0)
           (-45.0 45.0)
  end
  begin
     id 29
     name rfingers
     direction -1 -4.4892e-011 3.02158e-026   
     length 0.798934   
     axis -1.92718e-014 -90 -90   XYZ
    dof rx
    limits (0.0 90.0)
  end
  begin
     id 30
     name rthumb
     direction -0.707107 -6.34916e-011 0.707107   
     length 1.14711   
     axis -90 -45 3.53137e-014   XYZ
    dof rx rz
    limits (-45.0 45.0)
           (-45.0 45.0)
  end
:hierarchy
  begin
    root lhipjoint rhipjoint lowerback
    lhipjoint lfemur
    lfemur ltibia
    ltibia lfoot
    lfoot ltoes
    rhipjoint rfemur
    rfemur rtibia
    rtibia rfoot
    rfoot rtoes
    lowerback upperback
    upperback thorax
    thorax lowerneck lclavicle rclavicle
    lowerneck upperneck
    upperneck head
    lclavicle lhumerus
    lhumerus lradius
    lradius lwrist
    lwrist lhand lthumb
    lhand lfingers
    rclavicle rhumerus
    rhumerus rradius
    rradius rwrist
    rwrist rhand rthumb
    rhand rfingers
  end

#!OML:ASF H:\ManfredObstacles\Project 1\Capture day 1\Session 1\Male.ASF
:FULLY-SPECIFIED
:DEGREES
17
root 10.5752 16.06 34.8631 -171.586 -10.1121 -179.28
lowerback -9.1979 -1.93896 -4.11018
upperback 2.32383 -2.24351 1.86334
thorax 7.87702 -1.34586 3.93398
lowerneck 0.386685 -2.3651 -5.44662
upperneck -5.10778 -3.09745 9.98737
head -1.45608 -1.73425 4.31888
rclavicle -5.63306e-014 6.26172e-015
rhumerus -36.3944 -27.2747 -72.0409
rradius 24.8816
rwrist 34.5652
rhand -1.15669 -5.789
rfingers 7.12502
rthumb 24.482 -34.2443
lclavicle -5.63306e-014 6.26172e-015
lhumerus -27.3441 13.6905 85.7164
lradius 18.0664
lwrist -32.3667
lhand -9.17377 7.2783
lfingers 7.12502
lthumb 16.7792 36.5733
rfemur -30.097 -3.41377 17.4474
rtibia 27.986
rfoot -15.1712 1.71113
rtoes 6.8168
lfemur -5.94904 0.185882 -21.9727
ltibia 15.5694
lfoot -11.2462 -10.3516
ltoes 4.68477
18
root 10.5718 16.0583 34.8535 -171.397 -10.2373 -179.174
lowerback -9.25673 -1.89757 -3.87143
upperback 2.23917 -2.21152 1.8241
thorax 7.80367 -1.31422 3.76155
lowerneck 0.495034 -2.45264 -5.16048
upperneck -5.06974 -3.21724 9.85803
head -1.45804 -1.79774 4.21754
rclavicle 1.40889e-014 5.1684e-015
rhumerus -36.6337 -27.3872 -72.0367
rradius 24.9285
rwrist 34.4441
rhand -1.12851 -5.53797
rfingers 7.12502
rthumb 24.509 -33.9896
lclavicle 1.40889e-014 5.1684e-015
lhumerus -27.2948 13.2906 85.805
lradius 18.168
lwrist -32.0908
lhand -9.02527 7.37838
lfingers 7.12502
lthumb 16.9221 36.6612
rfemur -30.3808 -3.77718 17.6609
rtibia 28.1674
rfoot -15.2867 1.99432
rtoes 7.35905
lfemur -6.1191 0.101494 -21.8498
ltibia 15.5121
lfoot -11.1646 -10.4136
ltoes 5.26896
19
root 10.5742 16.0578 34.8406 -171.368 -10.308 -178.931
lowerback -9.24486 -1.87315 -3.65692
upperback 2.25546 -2.21405 1.90903
thorax 7.80874 -1.30917 3.73012
lowerneck 0.511517 -2.47108 -5.00629
upperneck -5.08031 -3.24139 9.76544
head -1.46556 -1.81124 4.15463
rclavicle -1.07344e-014 -5.66536e-015
rhumerus -36.6997 -27.718 -71.8723
rradius 24.8005
rwrist 34.8535
rhand -1.14239 -5.30444
rfingers 7.12502
rthumb 24.4957 -33.7579
lclavicle -1.07344e-014 -5.66536e-015
lhumerus -27.1905 12.9846 85.9916
lradius 18.2677
lwrist -31.8064
lhand -8.95451 7.40461
lfingers 7.12502
lthumb 16.9902 36.6816
rfemur -30.4647 -3.51414 17.8507
rtibia 28.3403
rfoot -15.5038 1.94159
rtoes 7.87398
lfemur -6.20027 0.0883444 -21.5414
ltibia 15.5487
lfoot -11.1179 -10.5699
ltoes 6.61043
20
root 10.5784 16.0559 34.8245 -171.457 -10.3065 -178.718
lowerback -9.17309 -1.90093 -3.57154
upperback 2.35385 -2.28284 2.09084
thorax 7.8846 -1.34949 3.86481
lowerneck 0.392253 -2.42002 -5.18324
upperneck -4.98101 -3.17349 9.77359
head -1.41478 -1.7679 4.18706
rclavicle 1.50828e-014 -1.98785e-015
rhumerus -36.6123 -27.8193 -71.6831
rradius 24.6831
rwrist 35.275
rhand -1.19995 -5.04209
rfingers 7.12502
rthumb 24.4405 -33.503
lclavicle 1.50828e-014 -1.98785e-015
lhumerus -27.0711 12.9848 86.2402
lradius 18.3369
lwrist -31.6694
lhand -8.92218 7.56806
lfingers 7.12502
lthumb 17.0213 36.8423
rfemur -30.4148 -3.05569 17.976
rtibia 28.5421
rfoot -15.8378 1.7261
rtoes 8.37686
lfemur -6.14297 0.165276 -21.2737
ltibia 15.6174
lfoot -11.2298 -10.6663
ltoes 7.17315
21
root 10.5818 16.0515 34.808 -171.356 -10.3258 -178.727
lowerback -9.13969 -1.94736 -3.59087
upperback 2.33196 -2.34922 2.14998
thorax 7.8521 -1.38406 3.92879
lowerneck 0.39982 -2.38617 -5.34159
upperneck -4.83721 -3.13189 9.82752
head -1.37002 -1.74057 4.23458
rclavicle 1.23743e-014 -8.54774e-015
rhumerus -36.6405 -27.8988 -71.5143
rradius 24.559
rwrist 35.5106
rhand -1.14981 -4.94176
rfingers 7.12502
rthumb 24.4886 -33.3962
lclavicle 1.23743e-014 -8.54774e-015
lhumerus -27.0236 13.1281 86.2955
lradius 18.2719
lwrist -31.6519
lhand -8.84648 7.70927
lfingers 7.12502
lthumb 17.0942 36.9772
rfemur -30.5865 -3.06337 18.0218
rtibia 28.791
rfoot -16.0278 1.7049
rtoes 8.52079
lfemur -6.23724 0.200688 -21.2603
ltibia 15.6838
lfoot -11.3297 -10.7582
ltoes 6.90915
